<?xml version="1.0" encoding="UTF-8"?>
<svg version="1.1" xmlns="http://www.w3.org/2000/svg" width="256" height="256">
<path d="M0 0 C4.60942495 1.79255415 7.29283541 4.93925312 10 9 C10.99 9.99 10.99 9.99 12 11 C12.7455745 12.74717647 13.42558776 14.52284927 14.0625 16.3125 C14.40410156 17.25738281 14.74570313 18.20226562 15.09765625 19.17578125 C16.54401759 23.70270442 17.12511843 27.81787355 17.12698364 32.56781006 C17.12980347 33.6754924 17.13262329 34.78317474 17.13552856 35.92442322 C17.13249222 37.7325222 17.13249222 37.7325222 17.12939453 39.57714844 C17.13202301 41.49241081 17.13202301 41.49241081 17.13470459 43.44636536 C17.13925515 46.93983635 17.13749963 50.43327774 17.1343255 53.92674923 C17.13179181 57.58180254 17.13414206 61.23685333 17.13571167 64.89190674 C17.13752949 71.02511042 17.13513625 77.15830205 17.13037109 83.29150391 C17.12491951 90.39035941 17.12669917 97.48918624 17.1321975 104.58804107 C17.13672811 110.68067857 17.13737973 116.77330741 17.13475883 122.86594605 C17.13319701 126.50611228 17.13299989 130.14626499 17.13629532 133.78643036 C17.13970715 137.83778092 17.13498523 141.88908156 17.12939453 145.94042969 C17.13141876 147.15392593 17.13344299 148.36742218 17.13552856 149.61769104 C17.13270874 150.71409409 17.12988892 151.81049713 17.12698364 152.94012451 C17.1264181 154.37805925 17.1264181 154.37805925 17.12584114 155.84504318 C17 158 17 158 16 159 C14.31427225 159.09836463 12.62440132 159.12632013 10.93580627 159.12698364 C9.83821487 159.12980347 8.74062347 159.13262329 7.60977173 159.13552856 C6.39477997 159.13350433 5.17978821 159.1314801 3.92797852 159.12939453 C2.6564241 159.13114685 1.38486969 159.13289917 0.07478333 159.13470459 C-3.42572687 159.13928113 -6.92620773 159.13748738 -10.42671847 159.1343255 C-14.09226484 159.13179814 -17.75780864 159.13414095 -21.4233551 159.13571167 C-27.58977713 159.13753433 -33.75618721 159.1351267 -39.92260742 159.13037109 C-47.03369724 159.12494997 -54.1447583 159.12667502 -61.25584739 159.1321975 C-67.36637919 159.13675187 -73.47690236 159.13736719 -79.58743531 159.13475883 C-83.23409594 159.13320601 -86.88074312 159.13297443 -90.52740288 159.13629532 C-94.60609479 159.13974939 -98.68473814 159.13494648 -102.76342773 159.12939453 C-104.55858826 159.13243088 -104.55858826 159.13243088 -106.39001465 159.13552856 C-112.98885537 159.1189586 -119.44977319 158.81471621 -126 158 C-126 157.34 -126 156.68 -126 156 C-126.7425 155.95875 -127.485 155.9175 -128.25 155.875 C-132.10046487 154.64985209 -132.83907972 152.33960408 -135 149 C-136.051875 148.34 -137.10375 147.68 -138.1875 147 C-141 145 -141 145 -141.75 142.0625 C-141.8325 141.051875 -141.915 140.04125 -142 139 C-142.495 137.8553125 -142.495 137.8553125 -143 136.6875 C-144.40825198 132.9028228 -144.89697218 129.03393526 -145 125 C-144.505 124.01 -144.505 124.01 -144 123 C-102.75 123 -61.5 123 -19 123 C-19 81.75 -19 40.5 -19 -2 C-13.72699144 -4.63650428 -5.38255462 -1.55090557 0 0 Z " fill="#FFFFFF" transform="translate(192,50)"/>
<path d="M0 0 C2.23722535 1.11861268 3.10173747 2.18373301 4.67805481 4.10647583 C7.9838864 8.03460331 11.52113158 11.66897527 15.15112305 15.29638672 C15.83968384 15.98830612 16.52824463 16.68022552 17.2376709 17.39311218 C19.49306561 19.65793456 21.75214523 21.91903474 24.01171875 24.1796875 C25.58786726 25.75905163 27.16394136 27.33849003 28.73994446 28.91799927 C32.03229314 32.21631675 35.32668311 35.51257986 38.62231445 38.80761719 C42.85098235 43.03618297 47.07270158 47.27161438 51.29272747 51.50880241 C54.5397362 54.76690329 57.79125293 58.02047582 61.04407692 61.27276993 C62.60344743 62.83332245 64.16119214 64.39550128 65.71729088 65.95931625 C67.88584979 68.13762915 70.06059998 70.30956651 72.23706055 72.47998047 C72.88075089 73.12929031 73.52444122 73.77860016 74.18763733 74.44758606 C74.7804953 75.03624954 75.37335327 75.62491302 75.98417664 76.23141479 C76.49719676 76.74497969 77.01021688 77.25854458 77.53878307 77.78767204 C79.10541413 79.23646115 79.10541413 79.23646115 82 80 C81.01 81.98 81.01 81.98 80 84 C69.58649839 83.89266594 59.17306851 83.78006717 48.75969791 83.66066074 C43.92486463 83.60538873 39.09002535 83.55196203 34.25512695 83.50268555 C29.59317516 83.45510493 24.93129933 83.40276467 20.26943779 83.34705925 C18.48677895 83.32660704 16.70409925 83.3078988 14.92140388 83.29092598 C12.43328399 83.26694514 9.94530902 83.2368824 7.45727539 83.20532227 C6.34057968 83.19668907 6.34057968 83.19668907 5.20132446 83.18788147 C0.11405216 83.11405216 0.11405216 83.11405216 -1 82 C-1.10035816 79.47997549 -1.13617712 76.987338 -1.12939453 74.46679688 C-1.13114685 73.67821793 -1.13289917 72.88963898 -1.13470459 72.0771637 C-1.13912358 69.4576704 -1.13618496 66.83824404 -1.1328125 64.21875 C-1.13348553 62.4065347 -1.13445554 60.59431948 -1.13571167 58.78210449 C-1.13718871 54.97891381 -1.1350339 51.17574656 -1.13037109 47.37255859 C-1.1246738 42.48621505 -1.12795278 37.59992643 -1.13394356 32.7135849 C-1.13754901 28.96994611 -1.13641066 25.22632045 -1.13381577 21.48268127 C-1.13314645 19.68046563 -1.13397507 17.87824882 -1.13629532 16.07603455 C-1.13882159 13.56172509 -1.13498162 11.04750583 -1.12939453 8.53320312 C-1.13141876 7.78095963 -1.13344299 7.02871613 -1.13552856 6.25367737 C-1.1142626 1.1142626 -1.1142626 1.1142626 0 0 Z " fill="#FFFFFF" transform="translate(48,66)"/>
<path d="M0 0 C10.52654238 -0.0231363 21.05307875 -0.04092168 31.57964134 -0.05181217 C36.46716584 -0.05703817 41.35467299 -0.06413071 46.2421875 -0.07543945 C50.95596106 -0.08627835 55.6697179 -0.09227897 60.38350296 -0.09487724 C62.1848947 -0.09672968 63.98628549 -0.10034683 65.78767014 -0.10573006 C68.30426791 -0.11295376 70.82079593 -0.11399037 73.33740234 -0.11352539 C74.08762161 -0.11712067 74.83784088 -0.12071594 75.61079407 -0.12442017 C80.77189568 -0.11405216 80.77189568 -0.11405216 83 1 C83 27.07 83 53.14 83 80 C81.02 80.99 81.02 80.99 79 82 C78.58058608 81.50934744 78.16117216 81.01869488 77.72904873 80.51317406 C73.529202 75.6498967 69.16212473 71.03286861 64.59594727 66.51416016 C63.892668 65.81394745 63.18938873 65.11373474 62.46479797 64.39230347 C60.95288906 62.88749485 59.43985243 61.38381856 57.92578316 59.88118362 C55.5323031 57.50520877 53.14248336 55.12560757 50.75364685 52.7449646 C43.96673458 45.9824211 37.17407289 39.22567357 30.37719727 32.47314453 C26.20877518 28.3314176 22.04516603 24.1849034 17.88453484 20.0353508 C16.29830294 18.45534241 14.71017428 16.87723597 13.12014961 15.30104446 C10.90834655 13.10833678 8.70266046 10.9096496 6.49829102 8.70947266 C5.83603516 8.05597839 5.1737793 7.40248413 4.49145508 6.72918701 C0 2.22789882 0 2.22789882 0 0 Z " fill="#FFFFFF" transform="translate(67,47)"/>
</svg>

